<?xml version="1.0" encoding="UTF-8"?>
<svg width="3368px" height="1185px" viewBox="0 0 3368 1185" version="1.1" xmlns="http://www.w3.org/2000/svg" xmlns:xlink="http://www.w3.org/1999/xlink">
    <!-- Generator: Sketch 52.3 (67297) - http://www.bohemiancoding.com/sketch -->
    <title>SvgjsG8131</title>
    <desc>Created with Sketch.</desc>
    <g id="Page-1" stroke="none" stroke-width="1" fill="none" fill-rule="evenodd">
        <g id="SvgjsG8131" fill="#2D8733">
            <path d="M1619.78007,471.742268 L1472.75625,471.734379 L1472.75625,552.918355 L1551.91944,552.918355 C1556.3623,552.918355 1559.99733,556.55338 1559.99733,561.000293 L1559.99733,600.982233 C1559.99733,605.829013 1556.76622,608.660253 1551.91944,608.660253 L1472.75625,608.660253 L1472.75625,683.381538 L1619.77531,683.381538 C1624.21817,683.381538 1627.84914,687.012751 1627.84914,691.455374 L1627.84914,731.04412 C1627.84914,735.486981 1624.21793,739.117955 1619.77531,739.117955 L1423.07789,739.117955 C1418.63503,739.117955 1415,735.486743 1415,731.04412 L1415,423.685037 C1415,419.646094 1418.23111,416.011069 1422.67802,416.011069 L1619.78055,416.011069 C1624.22341,416.011069 1627.85439,419.646094 1627.85439,423.685037 L1627.85439,464.07447 C1627.85439,468.517332 1624.22317,471.748439 1619.78055,471.748439 L1619.78007,471.742268 Z M1893.62241,729.021217 C1887.55983,689.439621 1887.15186,653.887673 1888.76753,615.516639 C1890.78307,567.456336 1863.32188,536.760938 1814.04624,536.760938 C1781.33006,536.760938 1746.99821,546.05058 1727.20741,556.955893 C1723.17228,559.383215 1719.94118,563.826315 1721.96077,567.865258 L1734.88543,598.560655 C1736.90493,603.003517 1740.13613,604.61919 1746.19466,602.195681 C1770.42737,591.694285 1790.62328,585.635751 1810.01135,585.635751 C1825.76344,585.635751 1835.457,588.866858 1835.05666,604.618951 C1769.6243,615.928183 1710.25191,628.851658 1710.25191,684.187255 C1710.25191,720.942616 1736.50539,741.133758 1778.10777,741.133758 C1812.43963,741.133758 1827.78613,731.040332 1840.30879,718.919451 C1843.13598,731.040332 1847.98276,739.114405 1858.08023,739.114405 L1888.3729,739.114405 C1892.81577,739.114405 1894.43144,733.867759 1893.6236,729.020979 L1893.62241,729.021217 Z M1788.19858,697.509882 C1775.67783,697.509882 1767.19579,693.874856 1767.19579,683.373461 C1767.19579,665.198097 1805.56682,657.119972 1834.24382,651.062391 C1833.83993,659.948114 1833.83993,673.680616 1834.24382,681.355062 C1822.12699,691.448488 1802.74059,697.511073 1788.19953,697.511073 L1788.19858,697.509882 Z M1973.59082,708.421629 L1990.96645,680.95996 C1994.19756,675.305344 1997.4289,673.68991 2002.27568,676.113181 C2002.27568,676.517075 2026.50839,688.633929 2049.93564,688.633929 C2064.47598,688.633929 2070.53451,684.191067 2070.53451,677.728615 C2070.53451,669.650729 2062.05271,666.823301 2035.39244,659.957169 C1999.04219,650.26361 1973.99927,628.453936 1973.99927,597.756155 C1973.99927,567.058375 2001.06059,536.768087 2050.73895,536.768087 C2080.62651,536.768087 2097.59107,544.845974 2116.57404,555.34737 C2121.42082,558.174558 2123.84409,563.021338 2121.0169,567.06052 L2102.02559,596.137861 C2099.19841,600.180856 2095.15922,601.796528 2091.12028,600.584774 C2085.06175,597.757585 2067.2903,590.083378 2050.73085,590.083378 C2037.80618,590.083378 2032.14751,594.930158 2032.14751,599.776938 C2032.14751,606.23939 2043.05688,609.874415 2061.63711,614.721195 C2097.58464,624.414754 2133.12706,643.398193 2133.12706,679.748444 C2133.12706,713.675187 2099.20031,741.939926 2049.92468,741.939926 C2016.80577,741.939926 1986.10799,725.787966 1976.016,717.709602 C1973.18881,715.690107 1971.57314,711.24715 1973.59273,708.419961 L1973.59082,708.421629 Z M2412.62879,539.185877 C2418.28341,539.185877 2421.51047,543.228872 2418.68328,548.475518 L2341.13576,707.612125 C2298.72554,795.656752 2264.7988,844.529658 2248.23934,859.878549 C2243.39257,863.513574 2238.14187,861.898044 2232.89117,856.647442 L2210.67686,834.433134 C2205.42616,829.182436 2206.234,824.335657 2211.08076,818.277123 C2234.50682,792.023634 2262.37479,750.421254 2283.37853,703.166404 L2200.98399,548.474089 C2198.56454,543.227442 2200.98399,539.188498 2206.64266,539.188498 L2251.07128,539.188498 C2255.91806,539.188498 2258.34133,541.207994 2260.36092,544.843114 L2311.65495,649.451961 L2359.71525,544.843114 C2361.73475,541.208089 2364.56203,539.188498 2369.00894,539.188498 L2412.62972,539.188498 L2412.62879,539.185877 Z M2695.35996,729.021217 C2696.57164,734.271915 2694.55217,739.110593 2690.51318,739.110593 L2656.58643,739.110593 C2643.66177,739.110593 2636.7954,730.22487 2636.7954,718.915638 L2636.7954,619.153809 C2636.7954,596.535584 2619.028,586.034903 2600.0448,586.034903 C2582.27336,586.034903 2566.9259,594.11279 2553.19268,607.037694 L2553.19268,731.434956 L2553.19268,733.050557 C2552.38489,735.881797 2549.96157,738.305306 2546.73023,739.109091 L2545.51854,739.109091 L2504.724,739.109091 C2500.68506,739.109091 2497.45395,735.477879 2497.45395,731.439174 L2497.45395,546.861681 L2497.45395,545.649998 L2497.45395,455.177095 C2497.45395,440.236889 2494.62676,433.370757 2493.01109,426.099754 C2491.7994,420.849056 2493.81492,416.002276 2498.26179,416.002276 L2533.40147,416.002276 C2545.11462,416.002276 2553.19251,423.676245 2553.19251,434.581558 L2553.19251,555.347131 C2567.32893,545.253705 2585.50358,536.363931 2608.52572,536.363931 C2649.72299,536.363931 2692.13321,564.237859 2692.13321,613.911452 L2692.13321,702.768682 C2692.53317,714.077914 2693.74486,721.751882 2695.3605,729.022171 L2695.35996,729.021217 Z M2936.89227,657.935434 C2954.66372,657.935434 2966.38187,648.237823 2966.38187,628.850943 C2966.38187,581.59371 2929.22379,536.357259 2869.44628,536.357259 C2812.90012,536.357259 2768.87662,580.383147 2768.87662,638.947706 C2768.87662,700.340883 2815.32125,741.13066 2871.86741,741.13066 C2907.81493,741.13066 2936.49193,728.609912 2953.05138,705.183135 C2955.87857,701.54811 2955.07088,698.720683 2951.8397,694.68174 L2942.55006,681.761124 C2938.51111,676.510427 2934.87609,677.318263 2930.02931,679.741629 C2919.124,685.800163 2898.12097,692.262377 2878.33017,692.262377 C2854.09746,692.262377 2832.28588,680.549227 2827.43886,657.935291 L2936.89473,657.935291 L2936.89227,657.935434 Z M2827.83914,615.117726 C2829.85863,602.193059 2845.20666,587.248564 2868.22857,587.248564 C2891.65463,587.248564 2906.19449,601.788903 2908.21527,615.117726 L2827.83914,615.117726 Z M3220.83113,729.021217 C3214.76854,689.439621 3214.36058,653.887673 3215.97625,615.516639 C3217.99179,567.456336 3190.5306,536.760938 3141.25496,536.760938 C3108.53878,536.760938 3074.20693,546.05058 3054.41613,556.955893 C3050.381,559.383215 3047.14989,563.826315 3049.16949,567.865258 L3062.09415,598.560655 C3064.11365,603.003517 3067.34485,604.61919 3073.40338,602.195681 C3097.63609,591.694285 3117.832,585.635751 3137.22007,585.635751 C3152.97216,585.635751 3162.66572,588.866858 3162.26538,604.618951 C3096.83302,615.928183 3037.46062,628.851658 3037.46062,684.187255 C3037.46062,720.942616 3063.71411,741.133758 3105.31649,741.133758 C3139.64835,741.133758 3154.99485,731.040332 3167.51751,718.919451 C3170.3447,731.040332 3175.19148,739.114405 3185.28895,739.114405 L3215.58162,739.114405 C3220.02449,739.114405 3221.64016,733.867759 3220.83232,729.020979 L3220.83113,729.021217 Z M3115.4073,697.509882 C3102.88655,697.509882 3094.40451,693.874856 3094.40451,683.373461 C3094.40451,665.198097 3132.77554,657.119972 3161.45254,651.062391 C3161.04864,659.948114 3161.04864,673.680616 3161.45254,681.355062 C3149.33571,691.448488 3129.94931,697.511073 3115.40825,697.511073 L3115.4073,697.509882 Z M3359.76945,416.003944 L3319.38001,416 C3314.9331,416 3311.70199,419.635025 3311.70199,423.673968 L3311.70199,718.522312 C3311.70199,730.235462 3318.97609,739.121185 3331.49708,739.121185 L3359.76897,739.121185 C3364.21183,739.121185 3367.44294,735.89389 3367.44294,731.047349 L3367.44294,423.688266 C3367.44294,419.649323 3363.80791,416.014298 3359.76897,416.014298 L3359.76945,416.003944 Z" id="Shape" fill-rule="nonzero"></path>
            <g id="Group-Copy">
                <g id="SvgjsG1112" transform="translate(0.075734, 0.104498)">
                    <g id="Group">
                        <g id="Rectangle">
                            <path d="M1169.78422,79.0422104 C1165.94293,73.2140451 1158.90792,70.3588328 1152.09367,71.8305917 C1145.26471,73.3170682 1140.0694,78.8655993 1139.00974,85.753431 C1137.02286,98.7049095 1135.87489,111.406189 1134.75635,123.695376 C1126.47035,215.459544 1118.61116,302.131427 748.463792,467.983939 C745.814626,469.161346 743.22433,470.397623 740.604599,471.604466 C739.088688,437.5774 734.997198,402.799736 728.182954,368.625494 C707.342848,264.145329 652.976074,116.174688 512.320074,4.4534686 C506.845131,0.111779805 499.28029,-0.418053404 493.260796,3.12888558 C487.241302,6.67582456 484.032868,13.5489387 485.195557,20.4367704 C486.88808,30.5771893 489.139871,40.2760806 491.303357,49.6511849 C507.183636,118.17628 522.166141,182.904237 291.23245,393.351044 C152.342561,519.922311 129.000465,637.398107 133.886705,713.664654 C138.390287,784.132471 170.150844,849.09591 219.911013,891.27652 C154.196978,952.119034 82.4487305,1004.54309 9.02267821,1043.32393 C0.780828287,1047.68034 -2.36873579,1057.87963 1.9876706,1066.1362 C5.01949396,1071.86134 10.8623769,1075.11393 16.9260236,1075.11393 C19.5751896,1075.11393 22.283226,1074.49579 24.7852162,1073.15649 C260.958369,948.395484 480.647822,686.481267 547.171325,450.337549 C549.702751,441.374538 544.478007,432.058304 535.514995,429.526878 C526.551983,426.995453 517.235749,432.220197 514.704324,441.183209 C473.686403,586.813754 372.135038,742.702458 244.53354,867.831401 C200.071703,831.640849 171.57845,774.212816 167.575266,711.501169 C163.174707,642.608134 185.000892,535.817307 313.985843,418.28264 C536.192004,215.798049 542.608873,133.055763 528.936232,63.5887418 C634.019819,163.933265 677.363119,286.192278 695.112531,375.189539 C717.365526,486.704712 709.653509,603.945027 675.479267,673.927164 C615.402069,796.922056 533.439815,872.202525 434.890838,896.457112 C433.580972,896.633723 432.329977,896.942792 431.15257,897.38432 C397.051916,905.302383 360.979105,907.171516 323.169619,902.800392 C315.840259,901.946772 308.437312,900.445578 301.152105,898.311528 C292.203811,895.677079 282.828707,900.7988 280.208976,909.732377 C277.589245,918.680671 282.710966,928.055775 291.644543,930.675506 C300.769448,933.354108 310.056247,935.252677 319.284175,936.312343 C333.898741,937.990148 348.292543,938.843768 362.480299,938.843768 C383.084924,938.843768 403.218586,937.033505 422.837132,933.486566 C429.680811,974.636945 444.251224,1013.15288 465.665317,1046.5618 C358.727314,1095.96875 247.550645,1132.24761 139.950351,1150.51214 C130.766576,1152.0722 124.585188,1160.78501 126.145253,1169.96879 C127.543424,1178.21064 134.681454,1184.00937 142.746693,1184.00937 C143.688619,1184.00937 144.630545,1183.93578 145.587188,1183.77389 C483.841539,1126.37529 856.991294,895.014788 1032.85177,633.65984 C1038.06179,625.933105 1036.01605,615.454182 1028.2746,610.244155 C1020.54786,605.034129 1010.06894,607.094591 1004.85891,614.821326 C894.859651,778.274871 705.370691,929.718863 496.425078,1031.97667 C475.805736,1001.01086 461.912331,964.761443 455.745662,925.774549 C484.091738,917.488546 511.275125,905.331818 537.13393,889.26021 C604.511053,847.344517 661.232641,779.893806 705.753348,688.777211 C728.27126,642.637569 740.383836,578.380575 741.178585,508.604485 C748.125288,505.263592 755.13086,501.966852 762.254173,498.787853 C937.025544,420.475561 1045.92099,353.304484 1104.98267,287.384402 C1154.58095,232.016832 1162.71977,184.802806 1167.14977,139.590372 C1263.24091,310.284971 1267.71505,484.541227 1253.14464,604.592601 C1235.35108,751.091484 1178.15852,892.659974 1107.45523,965.276558 C938.791655,1138.48787 755.822587,1186.68797 578.343179,1104.711 C569.453755,1100.60479 560.75566,1095.63025 552.469657,1089.91982 C544.801793,1084.62149 534.293435,1086.54949 528.995103,1094.23207 C523.711488,1101.89994 525.639492,1112.4083 533.307356,1117.70663 C543.168141,1124.49144 553.558759,1130.42263 564.184858,1135.3383 C624.482821,1163.1987 685.78158,1177.15097 747.389408,1177.15097 C780.459831,1177.15097 813.618559,1173.13307 846.747852,1165.08255 C945.208524,1141.12231 1041.06418,1081.82515 1131.62151,988.824701 C1207.16689,911.248289 1268.00941,762.04137 1286.64187,608.669373 C1303.11086,473.120377 1296.19359,271.253925 1169.78422,79.0422104 Z" id="Mask"></path>
                        </g>
                    </g>
                </g>
            </g>
        </g>
    </g>
</svg>