<?xml version="1.0" encoding="UTF-8"?>
<svg width="2556px" height="1278px" viewBox="0 0 2556 1278" version="1.1" xmlns="http://www.w3.org/2000/svg" xmlns:xlink="http://www.w3.org/1999/xlink">
    <!-- Generator: Sketch 52.3 (67297) - http://www.bohemiancoding.com/sketch -->
    <title>Carousal-1</title>
    <desc>Created with Sketch.</desc>
    <g id="Page-1" stroke="none" stroke-width="1" fill="none" fill-rule="evenodd">
        <g id="Carousal-1">
            <g fill="#A1CF6B" id="Rectangle">
                <rect x="0" y="0" width="2556" height="1278"></rect>
            </g>
            <g id="calm" transform="translate(1893.000000, 383.000000)">
                <path d="M409.736,63.265 C368.938,22.468 314.697,0 257.001,0 C199.305,0 145.063,22.468 104.265,63.265 C63.916,103.614 41.496,157.109 41.008,214.095 L1.845,292.422 C-0.025,296.161 1.3,300.709 4.884,302.86 L41,324.529 L41,440 C41,444.418 44.582,448 49,448 L121,448 L121,504 C121,508.418 124.582,512 129,512 L385,512 C389.418,512 393,508.418 393,504 L393,383.812 C443.892,342.554 473,281.616 473,216 C473.001,158.304 450.533,104.062 409.736,63.265 Z" id="Path" fill="#FFFFDE"></path>
                <path d="M177.799,142.818 C160.406,169.679 158.333,205.102 175.432,234.718 C192.531,264.334 224.244,280.25 256.203,278.618 C273.596,251.757 275.669,216.334 258.57,186.718 C241.471,157.102 209.758,141.186 177.799,142.818 Z" id="Path" fill="#2D9396"></path>
                <path d="M119.819,200.798 C118.187,232.757 134.103,264.47 163.719,281.569 C193.335,298.668 228.758,296.595 255.619,279.202 C257.251,247.243 241.335,215.53 211.719,198.431 C182.103,181.332 146.68,183.405 119.819,200.798 Z" id="Path" fill="#7ECFC5"></path>
                <path d="M173.015,276.196 C143.443,259.123 127.533,227.478 129.11,195.568 C125.922,197.121 122.815,198.859 119.819,200.799 C118.187,232.758 134.103,264.471 163.719,281.57 C193.335,298.669 228.758,296.596 255.619,279.203 C255.621,279.155 255.621,279.108 255.624,279.06 C230.22,291.434 199.328,291.388 173.015,276.196 Z" id="Path" fill="#33C0C4"></path>
                <path d="M336.203,142.818 C353.596,169.679 355.669,205.102 338.57,234.718 C321.471,264.334 289.758,280.25 257.799,278.618 C240.406,251.757 238.333,216.334 255.432,186.718 C272.531,157.102 304.244,141.186 336.203,142.818 Z" id="Path" fill="#2D9396"></path>
                <path d="M394.182,200.798 C395.814,232.757 379.898,264.47 350.282,281.569 C320.666,298.668 285.243,296.595 258.382,279.202 C256.75,247.243 272.666,215.53 302.282,198.431 C331.898,181.332 367.322,183.405 394.182,200.798 Z" id="Path" fill="#7ECFC5"></path>
                <g id="Group" transform="translate(209.000000, 121.000000)" fill="#33C0C4">
                    <path d="M48.001,0.596 C19.508,15.162 0.001,44.803 0.001,79 C0.001,113.197 19.508,142.838 48.001,157.404 C76.494,142.838 96.001,113.197 96.001,79 C96.001,44.803 76.494,15.162 48.001,0.596 Z" id="Path"></path>
                    <path d="M131.987,155.196 C161.559,138.123 177.469,106.478 175.892,74.568 C179.08,76.121 182.187,77.859 185.183,79.799 C186.815,111.758 170.899,143.471 141.283,160.57 C111.667,177.669 76.244,175.596 49.383,158.203 C49.381,158.155 49.381,158.108 49.378,158.06 C74.783,170.434 105.674,170.388 131.987,155.196 Z" id="Path"></path>
                </g>
                <g id="Group" transform="translate(161.000000, 88.000000)" fill="#FAD55A">
                    <path d="M97.001,16 L96.001,16 C91.583,16 88.001,12.418 88.001,8 C88.001,3.582 91.583,0 96.001,0 L97.001,0 C101.419,0 105.001,3.582 105.001,8 C105.001,12.418 101.419,16 97.001,16 Z" id="Path"></path>
                    <path d="M193.001,40 L192.001,40 C187.583,40 184.001,36.418 184.001,32 C184.001,27.582 187.583,24 192.001,24 L193.001,24 C197.419,24 201.001,27.582 201.001,32 C201.001,36.418 197.419,40 193.001,40 Z" id="Path"></path>
                    <path d="M9.001,40 L8.001,40 C3.583,40 0.001,36.418 0.001,32 C0.001,27.582 3.583,24 8.001,24 L9.001,24 C13.419,24 17.001,27.582 17.001,32 C17.001,36.418 13.419,40 9.001,40 Z" id="Path"></path>
                    <path d="M49.001,24 L48.001,24 C43.583,24 40.001,20.418 40.001,16 C40.001,11.582 43.583,8 48.001,8 L49.001,8 C53.419,8 57.001,11.582 57.001,16 C57.001,20.418 53.419,24 49.001,24 Z" id="Path"></path>
                    <path d="M145.001,24 L144.001,24 C139.583,24 136.001,20.418 136.001,16 C136.001,11.582 139.583,8 144.001,8 L145.001,8 C149.419,8 153.001,11.582 153.001,16 C153.001,20.418 149.419,24 145.001,24 Z" id="Path"></path>
                </g>
                <path d="M269.001,448 L249.001,448 C244.583,448 241.001,444.418 241.001,440 C241.001,435.582 244.583,432 249.001,432 L269.001,432 C275.618,432 281.001,426.617 281.001,420 C281.001,413.383 275.618,408 269.001,408 L237.001,408 C221.562,408 209.001,395.439 209.001,380 C209.001,364.561 221.562,352 237.001,352 L293.001,352 C299.618,352 305.001,346.617 305.001,340 C305.001,333.383 299.618,328 293.001,328 L201.001,328 C196.583,328 193.001,324.418 193.001,320 C193.001,315.582 196.583,312 201.001,312 L293.001,312 C308.44,312 321.001,324.561 321.001,340 C321.001,355.439 308.44,368 293.001,368 L237.001,368 C230.384,368 225.001,373.383 225.001,380 C225.001,386.617 230.384,392 237.001,392 L269.001,392 C284.44,392 297.001,404.561 297.001,420 C297.001,435.439 284.44,448 269.001,448 Z" id="Path" fill="#FF8E44"></path>
            </g>
        </g>
    </g>
</svg>